<?xml version="1.0" encoding="UTF-8"?>
<svg width="101px" height="19px" viewBox="0 0 101 19" version="1.1" xmlns="http://www.w3.org/2000/svg" xmlns:xlink="http://www.w3.org/1999/xlink">
    <!-- Generator: Sketch 63.1 (92452) - https://sketch.com -->
    <title>Powered By Logo</title>
    <desc>Created with Sketch.</desc>
    <g id="Powered-By-Logo" stroke="none" stroke-width="1" fill="none" fill-rule="evenodd">
        <text id="Powered-by" font-family="OpenSans-Light, Open Sans" font-size="9" font-weight="300" fill="#1F2238">
            <tspan x="1" y="12">Powered by</tspan>
        </text>
        <g id="semoss_logo_dark" transform="translate(53.000000, 3.000000)" fill-rule="nonzero">
            <path d="M42.5451055,7.92177215 L43.2686076,7.48514768 C43.4732068,8.07974684 43.8972152,8.37375527 44.5400844,8.37375527 C45.1758228,8.37375527 45.4901266,8.09510549 45.4901266,7.68097046 C45.4901266,7.46265823 45.4023629,7.30468354 45.2345148,7.19168776 C45.0666667,7.07869198 44.7594937,6.95033755 44.3283544,6.81540084 C43.8390717,6.66455696 43.5977215,6.56691983 43.254346,6.33379747 C42.9252321,6.09299578 42.757384,5.74632911 42.757384,5.27185654 C42.757384,4.80506329 42.9181013,4.43590717 43.2395359,4.16493671 C43.5609705,3.88628692 43.9482278,3.75080169 44.401308,3.75080169 C45.2197046,3.75080169 45.855443,4.18742616 46.1840084,4.91037975 L45.4753165,5.33219409 C45.2635865,4.84291139 44.9054008,4.59443038 44.401308,4.59443038 C43.9114768,4.59443038 43.597173,4.85059072 43.597173,5.24936709 C43.597173,5.64101266 43.845654,5.82147679 44.6278481,6.06995781 C44.8247679,6.13742616 44.9640928,6.18295359 45.0518565,6.22025316 C45.1467511,6.25042194 45.2712658,6.30308017 45.4319831,6.37109705 C45.5998312,6.4385654 45.724346,6.5142616 45.8044304,6.58172996 C46.0748523,6.80004219 46.3672152,7.16151899 46.3304641,7.66616034 C46.3304641,8.14063291 46.1620675,8.52459916 45.8263713,8.80324895 C45.4978059,9.08189873 45.0589873,9.21738397 44.518692,9.21738397 C43.5313502,9.21683544 42.8155274,8.72755274 42.5451055,7.92177215 M37.8832068,7.92177215 L38.6067089,7.48514768 C38.811308,8.07974684 39.2353165,8.37375527 39.8781857,8.37375527 C40.5139241,8.37375527 40.8282278,8.09510549 40.8282278,7.68097046 C40.8282278,7.46265823 40.7404641,7.30468354 40.572616,7.19168776 C40.4047679,7.07869198 40.0975949,6.95033755 39.6664557,6.81540084 C39.177173,6.66455696 38.9358228,6.56691983 38.5924473,6.33379747 C38.2633333,6.09299578 38.0954852,5.74632911 38.0954852,5.27185654 C38.0954852,4.80506329 38.2562025,4.43590717 38.5776371,4.16493671 C38.8990717,3.88628692 39.2863291,3.75080169 39.7394093,3.75080169 C40.5578059,3.75080169 41.1935443,4.18742616 41.5221097,4.91037975 L40.8134177,5.33219409 C40.6016878,4.84291139 40.2435021,4.59443038 39.7394093,4.59443038 C39.2495781,4.59443038 38.9358228,4.85059072 38.9358228,5.24936709 C38.9358228,5.64101266 39.1843038,5.82147679 39.9659494,6.06995781 C40.1634177,6.13742616 40.3021941,6.18295359 40.3899578,6.22025316 C40.4848523,6.25042194 40.6093671,6.30308017 40.7700844,6.37109705 C40.9379325,6.4385654 41.0624473,6.5142616 41.1425316,6.58172996 C41.4129536,6.80004219 41.7053165,7.16151899 41.6685654,7.66616034 C41.6685654,8.14063291 41.5007173,8.52459916 41.1644726,8.80324895 C40.8359072,9.08189873 40.3970886,9.21738397 39.8567932,9.21738397 C38.87,9.21683544 38.1536287,8.72755274 37.8832068,7.92177215 M34.3397468,8.37375527 C34.8509705,8.37375527 35.2821097,8.19329114 35.6254852,7.83949367 C35.9759916,7.47801688 36.151519,7.02658228 36.151519,6.48409283 C36.151519,5.94160338 35.9759916,5.49016878 35.6254852,5.13637131 C35.2821097,4.77489451 34.8509705,4.59443038 34.3397468,4.59443038 C33.8279747,4.59443038 33.3968354,4.77489451 33.0463291,5.13637131 C32.7029536,5.49016878 32.5274262,5.9421519 32.5274262,6.48409283 C32.5274262,7.02603376 32.7029536,7.47801688 33.0463291,7.83949367 C33.3968354,8.19274262 33.8279747,8.37375527 34.3397468,8.37375527 M34.3397468,9.21683544 C33.6014346,9.21683544 32.9733755,8.9535443 32.4544726,8.4264135 C31.9432489,7.89160338 31.6870886,7.24434599 31.6870886,6.4835443 C31.6870886,5.72274262 31.9427004,5.07548523 32.4544726,4.54835443 C32.9733755,4.0135443 33.6014346,3.75025316 34.3397468,3.75025316 C35.0775105,3.75025316 35.7061181,4.0135443 36.2173418,4.54835443 C36.7362447,5.07548523 36.9918565,5.72329114 36.9918565,6.4835443 C36.9918565,7.24379747 36.7362447,7.89160338 36.2173418,8.4264135 C35.7061181,8.9535443 35.0775105,9.21683544 34.3397468,9.21683544 M30.3355274,3.84843882 L30.3355274,9.11919831 L29.4951899,9.11919831 L29.4951899,5.36181435 L27.9390295,8.01227848 L27.8364557,8.01227848 L26.2802954,5.35413502 L26.2802954,9.11919831 L25.4399578,9.11919831 L25.4399578,3.84843882 L26.3461181,3.84843882 L27.8880169,6.48409283 L29.4370464,3.84843882 L30.3355274,3.84843882 Z M21.5597046,8.29092827 L23.8251055,8.29092827 L23.8251055,9.11919831 L20.7193671,9.11919831 L20.7193671,3.84843882 L23.7883544,3.84843882 L23.7883544,4.67670886 L21.5597046,4.67670886 L21.5597046,6.04691983 L23.6056962,6.04691983 L23.6056962,6.86751055 L21.5597046,6.86751055 L21.5597046,8.29092827 Z M15.3992405,7.92177215 L16.1227426,7.48514768 C16.3273418,8.07974684 16.7508017,8.37375527 17.3942194,8.37375527 C18.0299578,8.37375527 18.3442616,8.09510549 18.3442616,7.68097046 C18.3442616,7.46265823 18.2564979,7.30468354 18.0886498,7.19168776 C17.9208017,7.07869198 17.6136287,6.95033755 17.1824895,6.81540084 C16.6926582,6.66455696 16.4518565,6.56691983 16.108481,6.33379747 C15.7799156,6.09299578 15.611519,5.74632911 15.611519,5.27185654 C15.611519,4.80506329 15.7722363,4.43590717 16.0936709,4.16493671 C16.4151055,3.88628692 16.8023629,3.75080169 17.255443,3.75080169 C18.0738397,3.75080169 18.7095781,4.18742616 19.0381435,4.91037975 L18.3294515,5.33219409 C18.1177215,4.84291139 17.7595359,4.59443038 17.255443,4.59443038 C16.7656118,4.59443038 16.4518565,4.85059072 16.4518565,5.24936709 C16.4518565,5.64101266 16.7003376,5.82147679 17.4819831,6.06995781 C17.6794515,6.13742616 17.8182278,6.18295359 17.9059916,6.22025316 C18.0008861,6.25042194 18.1254008,6.30308017 18.2861181,6.37109705 C18.4539662,6.4385654 18.578481,6.5142616 18.6585654,6.58172996 C18.9289873,6.80004219 19.2213502,7.16151899 19.1845992,7.66616034 C19.1845992,8.14063291 19.0167511,8.52459916 18.6805063,8.80324895 C18.3519409,9.08189873 17.9131224,9.21738397 17.372827,9.21738397 C16.3860338,9.21683544 15.6696624,8.72755274 15.3992405,7.92177215" id="Shape" fill="#17233C"></path>
            <g id="Group" fill="#00A8C1">
                <path d="M1.92257384,5.00746835 L1.92257384,7.25092827 L3.16168776,7.25092827 L3.16168776,5.00746835 C4.26476793,4.72991561 5.0842616,3.72995781 5.0842616,2.54185654 C5.0842616,1.14037975 3.94388186,0 2.54185654,0 C1.13983122,0 0,1.14037975 0,2.54185654 C0,3.72995781 0.819493671,4.72991561 1.92257384,5.00746835 Z" id="Path"></path>
                <path d="M6.0249789,7.64970464 L4.42932489,8.72316456 C3.96362869,8.20755274 3.29059072,7.882827 2.54240506,7.882827 C1.14037975,7.882827 0,9.02320675 0,10.4252321 C0,11.8267089 1.14037975,12.9670886 2.54185654,12.9670886 C3.94333333,12.9670886 5.08371308,11.8267089 5.08371308,10.4252321 C5.08371308,10.2184388 5.05848101,10.0176793 5.01130802,9.82459916 L6.72050633,8.67489451 L6.0249789,7.64970464 Z" id="Path"></path>
                <path d="M9.07092827,3.90109705 C8.39021097,3.90109705 7.77147679,4.17097046 7.31455696,4.60814346 L5.56037975,3.55113924 L4.92080169,4.61253165 L6.65413502,5.65691983 C6.57350211,5.90485232 6.52907173,6.16869198 6.52907173,6.44295359 C6.52907173,7.84443038 7.66945148,8.98481013 9.07092827,8.98481013 C10.4724051,8.98481013 11.6127848,7.84443038 11.6127848,6.44295359 C11.6127848,5.04147679 10.4724051,3.90109705 9.07092827,3.90109705 Z" id="Path"></path>
            </g>
        </g>
    </g>
</svg>