<?xml version="1.0" encoding="utf-8"?>
<!-- Generator: Adobe Illustrator 23.0.4, SVG Export Plug-In . SVG Version: 6.00 Build 0)  -->
<svg version="1.1" id="Layer_1" xmlns="http://www.w3.org/2000/svg" xmlns:xlink="http://www.w3.org/1999/xlink" x="0px" y="0px"
	 viewBox="0 0 844.69 236.4" style="enable-background:new 0 0 844.69 236.4;" xml:space="preserve">
<style type="text/css">
	.st0{fill:#FFFFFF;}
	.st1{fill:#00A8C1;}
	.st2{fill:#17233C;}
</style>
<g>
	<path class="st2" d="M775.63,144.42l13.19-7.96c3.73,10.84,11.46,16.2,23.18,16.2c11.59,0,17.32-5.08,17.32-12.63
		c0-3.98-1.6-6.86-4.66-8.92c-3.06-2.06-8.66-4.4-16.52-6.86c-8.92-2.75-13.32-4.53-19.58-8.78c-6-4.39-9.06-10.71-9.06-19.36
		c0-8.51,2.93-15.24,8.79-20.18c5.86-5.08,12.92-7.55,21.18-7.55c14.92,0,26.51,7.96,32.5,21.14l-12.92,7.69
		c-3.86-8.92-10.39-13.45-19.58-13.45c-8.93,0-14.66,4.67-14.66,11.94c0,7.14,4.53,10.43,18.79,14.96c3.59,1.23,6.13,2.06,7.73,2.74
		c1.73,0.55,4,1.51,6.93,2.75c3.06,1.23,5.33,2.61,6.79,3.84c4.93,3.98,10.26,10.57,9.59,19.77c0,8.65-3.07,15.65-9.19,20.73
		c-5.99,5.08-13.99,7.55-23.84,7.55C793.61,168.03,780.56,159.11,775.63,144.42 M690.64,144.42l13.19-7.96
		c3.73,10.84,11.46,16.2,23.18,16.2c11.59,0,17.32-5.08,17.32-12.63c0-3.98-1.6-6.86-4.66-8.92c-3.06-2.06-8.66-4.4-16.52-6.86
		c-8.92-2.75-13.32-4.53-19.58-8.78c-6-4.39-9.06-10.71-9.06-19.36c0-8.51,2.93-15.24,8.79-20.18c5.86-5.08,12.92-7.55,21.18-7.55
		c14.92,0,26.51,7.96,32.5,21.14l-12.92,7.69c-3.86-8.92-10.39-13.45-19.58-13.45c-8.93,0-14.65,4.67-14.65,11.94
		c0,7.14,4.53,10.43,18.78,14.96c3.6,1.23,6.13,2.06,7.73,2.74c1.73,0.55,4,1.51,6.93,2.75c3.06,1.23,5.33,2.61,6.79,3.84
		c4.93,3.98,10.26,10.57,9.59,19.77c0,8.65-3.06,15.65-9.19,20.73c-5.99,5.08-13.99,7.55-23.84,7.55
		C708.63,168.03,695.57,159.11,690.64,144.42 M626.04,152.66c9.32,0,17.18-3.29,23.44-9.74c6.39-6.59,9.59-14.82,9.59-24.71
		s-3.2-18.12-9.59-24.57c-6.26-6.59-14.12-9.88-23.44-9.88c-9.33,0-17.19,3.29-23.58,9.88c-6.26,6.45-9.46,14.69-9.46,24.57
		s3.2,18.12,9.46,24.71C608.85,149.36,616.71,152.66,626.04,152.66 M626.04,168.03c-13.46,0-24.91-4.8-34.37-14.41
		c-9.32-9.75-13.99-21.55-13.99-35.42s4.66-25.67,13.99-35.28c9.46-9.75,20.91-14.55,34.37-14.55c13.45,0,24.91,4.8,34.23,14.55
		c9.46,9.61,14.12,21.42,14.12,35.28s-4.66,25.67-14.12,35.42C650.95,163.23,639.49,168.03,626.04,168.03 M553.04,70.16v96.09
		h-15.32v-68.5l-28.37,48.32h-1.87l-28.37-48.46v68.64h-15.32V70.16h16.52l28.11,48.05l28.24-48.05H553.04z M393.05,151.15h41.3
		v15.1h-56.62V70.16h55.95v15.1h-40.63v24.98h37.3v14.96h-37.3V151.15z M280.74,144.42l13.19-7.96c3.73,10.84,11.45,16.2,23.18,16.2
		c11.59,0,17.32-5.08,17.32-12.63c0-3.98-1.6-6.86-4.66-8.92c-3.06-2.06-8.66-4.4-16.52-6.86c-8.93-2.75-13.32-4.53-19.58-8.78
		c-5.99-4.39-9.06-10.71-9.06-19.36c0-8.51,2.93-15.24,8.79-20.18c5.86-5.08,12.92-7.55,21.18-7.55c14.92,0,26.51,7.96,32.5,21.14
		l-12.92,7.69c-3.86-8.92-10.39-13.45-19.58-13.45c-8.93,0-14.65,4.67-14.65,11.94c0,7.14,4.53,10.43,18.78,14.96
		c3.6,1.23,6.13,2.06,7.73,2.74c1.73,0.55,4,1.51,6.93,2.75c3.06,1.23,5.33,2.61,6.79,3.84c4.93,3.98,10.26,10.57,9.59,19.77
		c0,8.65-3.06,15.65-9.19,20.73c-5.99,5.08-13.99,7.55-23.84,7.55C298.73,168.03,285.67,159.11,280.74,144.42"/>
	<g>
		<path class="st1" d="M35.05,91.29v40.9h22.59v-40.9C77.75,86.23,92.69,68,92.69,46.34C92.69,20.79,71.9,0,46.34,0S0,20.79,0,46.34
			C0,68,14.94,86.23,35.05,91.29z"/>
		<path class="st1" d="M109.84,139.46l-29.09,19.57c-8.49-9.4-20.76-15.32-34.4-15.32C20.79,143.71,0,164.5,0,190.06
			c0,25.55,20.79,46.34,46.34,46.34s46.34-20.79,46.34-46.34c0-3.77-0.46-7.43-1.32-10.95l31.16-20.96L109.84,139.46z"/>
		<path class="st1" d="M165.37,71.12c-12.41,0-23.69,4.92-32.02,12.89l-31.98-19.27L89.71,84.09l31.6,19.04
			c-1.47,4.52-2.28,9.33-2.28,14.33c0,25.55,20.79,46.34,46.34,46.34s46.34-20.79,46.34-46.34S190.92,71.12,165.37,71.12z"/>
	</g>
</g>
</svg>
